PathFileType	4	(X/Y/Z)	D:\TRACE\spotREDO_2-26-24\spot_justBody_Motion_2_3-platform.trc
DataRate	CameraRate	NumFrames	NumMarkers	Units	OrigDataRate	OrigDataStartFrame	OrigNumFrames
100.00	100.00	      25	5	mm	100.00	1	      7000
Frame#	Time	Left_Front			Right_Front			Left_Aft			Right_Aft			Post			
		X1	Y1	Z1	X2	Y2	Z2	X3	Y3	Z3	X4	Y4	Z4	X5	Y5	Z5	

1	0.000	-696.94055	-3.82178	-575.61676	717.87939	5.19900	-491.16547	-768.16943	5.01369	643.43744	801.80103	11.95241	646.48932	12.57383	623.39093	-981.98712	
2	0.010	-696.91559	-3.81311	-575.62872	717.89929	5.14430	-491.22354	-768.21033	5.00647	643.45605	801.83899	11.99004	646.50903	12.54023	623.43719	-982.01221	
3	0.020	-696.88348	-3.79866	-575.63812	717.87921	5.13604	-491.24536	-768.23468	4.80249	643.34064	801.88086	12.14430	646.69275	12.55182	623.43799	-982.04132	
4	0.030	-696.88000	-3.80684	-575.64606	717.88788	5.16700	-491.22052	-768.20447	5.02522	643.42645	801.84741	12.11426	646.67535	12.56632	623.42682	-982.09204	
5	0.040	-696.91510	-3.78065	-575.63104	717.90686	5.21750	-491.17322	-768.16852	5.04868	643.48419	801.91913	12.15542	646.66626	12.50202	623.45673	-982.12048	
6	0.050	-696.92401	-3.79665	-575.63458	717.88647	5.25850	-491.16290	-768.16956	5.04198	643.45587	801.85718	12.01010	646.49756	12.53959	623.46875	-982.17859	
7	0.060	-696.93634	-3.78121	-575.67200	717.81763	5.17100	-491.23056	-768.18878	5.05662	643.46179	801.89539	12.17840	646.64148	12.57765	623.44977	-982.14233	
8	0.070	-696.94196	-3.81352	-575.64758	717.83099	5.16047	-491.26971	-768.21936	5.03408	643.41199	801.83453	12.15479	646.67731	12.53552	623.44629	-982.13391	
9	0.080	-696.90570	-3.81096	-575.65460	717.83276	5.15186	-491.29919	-768.18567	5.03972	643.48590	801.79889	12.14185	646.68140	12.51712	623.40283	-982.07745	
10	0.090	-696.93488	-3.80042	-575.66718	717.87128	5.17706	-491.20941	-768.17279	5.09219	643.45911	801.78271	12.00403	646.50519	12.44667	623.40118	-982.06226	
11	0.100	-696.90826	-3.83801	-575.64771	717.85809	5.18858	-491.18765	-768.18134	5.03869	643.46124	801.77991	12.11306	646.67511	12.40895	623.38745	-982.03986	
12	0.110	-696.91882	-3.79802	-575.62878	717.86609	5.19848	-491.14935	-768.15985	5.04302	643.43024	801.87274	12.16187	646.66589	12.43535	623.36359	-982.06134	
13	0.120	-696.92798	-3.79208	-575.62140	717.88574	5.18136	-491.20135	-768.14996	5.02875	643.44177	801.85846	12.17253	646.66461	12.40641	623.42236	-982.08051	
14	0.130	-696.91223	-3.80395	-575.64807	717.88605	5.17060	-491.23450	-768.22052	5.06111	643.44238	801.89124	12.12327	646.66016	12.40982	623.42755	-982.07526	
15	0.140	-696.95422	-3.77906	-575.61523	717.92621	5.18158	-491.20416	-768.16040	5.05930	643.45673	801.80139	12.11290	646.67346	12.34773	623.53320	-982.05945	
16	0.150	-696.94092	-3.78542	-575.62451	717.87933	5.19753	-491.19522	-768.14685	5.06784	643.43231	801.78705	12.08837	646.68378	12.32012	623.44830	-982.05371	
17	0.160	-696.93121	-3.75866	-575.62128	717.86249	5.22047	-491.17404	-768.18591	5.08473	643.47314	801.81427	12.11536	646.66583	11.94063	623.53851	-982.06671	
18	0.170	-696.91913	-3.80964	-575.62555	717.86499	5.26317	-491.20764	-768.20691	5.04279	643.43768	801.89636	12.15032	646.66010	11.83819	623.45764	-982.05072	
19	0.180	-696.92010	-3.81047	-575.61243	717.89282	5.16964	-491.25238	-768.19635	5.03080	643.43939	801.89172	12.17329	646.66602	11.58976	623.51740	-982.01959	
20	0.190	-696.91754	-3.81136	-575.63727	717.89069	5.17980	-491.20477	-768.21112	5.08091	643.43134	801.95831	12.19441	646.64966	11.53293	623.67072	-982.06799	
21	0.200	-696.92181	-3.79092	-575.63062	717.89166	5.15959	-491.20190	-768.20905	5.07116	643.43591	801.83960	11.97719	646.51111	12.35332	623.43317	-982.11981	
22	0.210	-696.93042	-3.79511	-575.60822	717.94788	5.22682	-491.17484	-768.16248	5.05831	643.44604	801.81323	12.01628	646.44678	12.33686	623.46057	-982.10022	
23	0.220	-696.94373	-3.78226	-575.61469	717.90436	5.26135	-491.17493	-768.16626	5.08189	643.47314	801.86182	12.15939	646.64374	12.36049	623.45770	-982.14166	
24	0.230	-696.93384	-3.80717	-575.64227	717.87720	5.22971	-491.20209	-768.20544	5.05510	643.46918	801.82642	12.16667	646.65027	12.33151	623.45795	-982.12177	
25	0.240	-696.88214	-3.82659	-575.64850	717.86951	5.14757	-491.22943	-768.17041	5.02998	643.44983	801.90790	12.16599	646.64905	12.35398	623.46161	-982.08521	
